<svg width="114" height="22" viewBox="0 0 114 22" fill="none" xmlns="http://www.w3.org/2000/svg">
<path d="M0.982758 20.5516V17.3616H3.69517V4.49164H0.982758V1.30164H11.5965C12.8545 1.30164 13.9453 1.5033 14.8691 1.90664C15.8126 2.29164 16.5398 2.8508 17.0509 3.58414C17.5816 4.29914 17.8469 5.1608 17.8469 6.16914V6.44414C17.8469 7.32414 17.67 8.0483 17.3162 8.61664C16.9624 9.16664 16.5398 9.59747 16.0484 9.90914C15.5767 10.2025 15.1247 10.4133 14.6922 10.5416V11.0366C15.1247 11.1466 15.5964 11.3575 16.1074 11.6691C16.6184 11.9625 17.0509 12.3933 17.4047 12.9616C17.7781 13.53 17.9648 14.2725 17.9648 15.1891V15.4641C17.9648 16.5275 17.6995 17.4441 17.1688 18.2141C16.6381 18.9658 15.901 19.5433 14.9576 19.9466C14.0338 20.35 12.9528 20.5516 11.7145 20.5516H0.982758ZM7.58689 17.2516H11.2428C12.0879 17.2516 12.766 17.0591 13.2771 16.6741C13.8078 16.2891 14.0731 15.7391 14.0731 15.0241V14.7491C14.0731 14.0341 13.8176 13.4841 13.3066 13.0991C12.7955 12.7141 12.1076 12.5216 11.2428 12.5216H7.58689V17.2516ZM7.58689 9.22164H11.1838C11.9897 9.22164 12.6481 9.02914 13.1591 8.64414C13.6898 8.25914 13.9552 7.72747 13.9552 7.04914V6.77414C13.9552 6.07747 13.6997 5.5458 13.1886 5.17914C12.6776 4.79414 12.0093 4.60164 11.1838 4.60164H7.58689V9.22164Z" fill="#B0B0B0"/>
<path d="M26.7526 20.9366C25.2981 20.9366 23.991 20.6616 22.8313 20.1116C21.6717 19.5616 20.7577 18.7641 20.0895 17.7191C19.4212 16.6741 19.087 15.4183 19.087 13.9516V13.5116C19.087 12.0449 19.4212 10.7891 20.0895 9.74411C20.7577 8.69911 21.6717 7.90161 22.8313 7.35161C23.991 6.80161 25.2981 6.52661 26.7526 6.52661C28.207 6.52661 29.5141 6.80161 30.6738 7.35161C31.8334 7.90161 32.7474 8.69911 33.4157 9.74411C34.0839 10.7891 34.4181 12.0449 34.4181 13.5116V13.9516C34.4181 15.4183 34.0839 16.6741 33.4157 17.7191C32.7474 18.7641 31.8334 19.5616 30.6738 20.1116C29.5141 20.6616 28.207 20.9366 26.7526 20.9366ZM26.7526 17.8566C27.8926 17.8566 28.836 17.5174 29.5829 16.8391C30.3298 16.1424 30.7032 15.1524 30.7032 13.8691V13.5941C30.7032 12.3108 30.3298 11.3299 29.5829 10.6516C28.8557 9.95494 27.9122 9.60661 26.7526 9.60661C25.6126 9.60661 24.6691 9.95494 23.9222 10.6516C23.1753 11.3299 22.8019 12.3108 22.8019 13.5941V13.8691C22.8019 15.1524 23.1753 16.1424 23.9222 16.8391C24.6691 17.5174 25.6126 17.8566 26.7526 17.8566Z" fill="#B0B0B0"/>
<path d="M36.3729 20.5516V1.30164H40.0877V20.5516H36.3729Z" fill="#B0B0B0"/>
<path d="M48.3319 20.5516C47.3688 20.5516 46.5826 20.2766 45.9733 19.7266C45.3836 19.1583 45.0888 18.4066 45.0888 17.4716V9.77164H41.4329V6.91164H45.0888V2.67664H48.8036V6.91164H52.8132V9.77164H48.8036V16.8666C48.8036 17.4166 49.0788 17.6916 49.6291 17.6916H52.4595V20.5516H48.3319Z" fill="#B0B0B0"/>
<path d="M60.7752 20.9366C58.8686 20.9366 57.306 20.5516 56.0874 19.7816C54.8688 19.0116 54.1317 17.9116 53.8762 16.4816L57.2962 15.6566C57.4338 16.2983 57.6598 16.8024 57.9743 17.1691C58.3084 17.5358 58.7114 17.8016 59.1831 17.9666C59.6745 18.1133 60.2052 18.1866 60.7752 18.1866C61.64 18.1866 62.2788 18.0491 62.6916 17.7741C63.1043 17.4808 63.3107 17.1233 63.3107 16.7016C63.3107 16.2799 63.1141 15.9591 62.721 15.7391C62.3279 15.5008 61.699 15.3083 60.8341 15.1616L60.0086 15.0241C58.9866 14.8408 58.0529 14.5933 57.2078 14.2816C56.3626 13.9516 55.6845 13.5024 55.1734 12.9341C54.6624 12.3658 54.4069 11.6324 54.4069 10.7341C54.4069 9.37744 54.9376 8.34161 55.999 7.62661C57.0603 6.89328 58.4559 6.52661 60.1855 6.52661C61.8169 6.52661 63.1731 6.86578 64.2541 7.54411C65.3352 8.22244 66.0428 9.11161 66.3769 10.2116L62.9274 11.2016C62.7702 10.5049 62.4459 10.0099 61.9545 9.71661C61.4828 9.42328 60.8931 9.27661 60.1855 9.27661C59.4779 9.27661 58.9374 9.39578 58.564 9.63411C58.1905 9.85411 58.0038 10.1658 58.0038 10.5691C58.0038 11.0091 58.2003 11.3391 58.5934 11.5591C58.9865 11.7608 59.5172 11.9166 60.1855 12.0266L61.011 12.1641C62.1117 12.3474 63.1043 12.5949 63.9888 12.9066C64.8929 13.1999 65.6005 13.6308 66.1116 14.1991C66.6422 14.7491 66.9076 15.5008 66.9076 16.4541C66.9076 17.8841 66.3474 18.9933 65.2271 19.7816C64.1264 20.5516 62.6424 20.9366 60.7752 20.9366Z" fill="#B0B0B0"/>
<path d="M68.6887 20.5516V1.30164H72.4036V8.58914H72.9343C73.0915 8.2958 73.3372 8.00247 73.6713 7.70914C74.0055 7.4158 74.4477 7.17747 74.998 6.99414C75.568 6.79247 76.2855 6.69164 77.1503 6.69164C78.2903 6.69164 79.2829 6.93914 80.128 7.43414C80.9929 7.9108 81.6611 8.57997 82.1329 9.44164C82.6046 10.285 82.8405 11.275 82.8405 12.4116V20.5516H79.1256V12.6866C79.1256 11.66 78.8505 10.89 78.3001 10.3766C77.7694 9.8633 77.0029 9.60664 76.0005 9.60664C74.8605 9.60664 73.976 9.96414 73.347 10.6791C72.718 11.3758 72.4036 12.3566 72.4036 13.6216V20.5516H68.6887Z" fill="#B0B0B0"/>
<path d="M85.3823 20.5516V6.91163H89.0971V20.5516H85.3823ZM87.2397 5.31663C86.5714 5.31663 86.0014 5.11496 85.5297 4.71163C85.0776 4.30829 84.8516 3.77663 84.8516 3.11663C84.8516 2.45663 85.0776 1.92496 85.5297 1.52163C86.0014 1.11829 86.5714 0.916626 87.2397 0.916626C87.9276 0.916626 88.4976 1.11829 88.9497 1.52163C89.4017 1.92496 89.6278 2.45663 89.6278 3.11663C89.6278 3.77663 89.4017 4.30829 88.9497 4.71163C88.4976 5.11496 87.9276 5.31663 87.2397 5.31663Z" fill="#B0B0B0"/>
<path d="M94.157 20.5516V9.77164H90.4422V6.91164H94.157V4.38164C94.157 3.44664 94.4519 2.70414 95.0415 2.15414C95.6508 1.5858 96.437 1.30164 97.4001 1.30164H101.233V4.16164H98.6974C98.147 4.16164 97.8719 4.43664 97.8719 4.98664V6.91164H101.705V9.77164H97.8719V20.5516H94.157Z" fill="#B0B0B0"/>
<path d="M108.42 20.5516C107.457 20.5516 106.671 20.2766 106.061 19.7266C105.472 19.1583 105.177 18.4066 105.177 17.4716V9.77164H101.521V6.91164H105.177V2.67664H108.892V6.91164H112.901V9.77164H108.892V16.8666C108.892 17.4166 109.167 17.6916 109.717 17.6916H112.547V20.5516H108.42Z" fill="#B0B0B0"/>
</svg>
