<svg width="111" height="28" viewBox="0 0 111 28" fill="none" xmlns="http://www.w3.org/2000/svg">
<path d="M8.96841 21.4014C13.595 21.4014 16.7188 19.1054 16.7188 15.4374C16.7188 7.68139 5.87416 10.9854 5.87416 6.89739C5.87416 5.74939 6.96451 4.96539 8.70318 4.96539C10.6776 4.96539 11.9153 5.97339 12.0627 7.51339H16.2767C16.1588 3.78939 13.153 1.35339 8.70318 1.35339C4.51858 1.35339 1.57168 3.64939 1.57168 6.89739C1.57168 14.5974 12.2689 11.6574 12.2689 15.4934C12.2689 16.9774 10.9428 17.7614 8.96841 17.7614C6.7877 17.7614 5.40265 16.5014 5.22584 14.5134H0.9823C1.15911 18.6854 4.28283 21.4014 8.96841 21.4014Z" fill="#B0B0B0"/>
<path d="M17.7209 26.8893H21.8171V19.9173C22.6128 20.8693 24.0568 21.4013 25.7365 21.4013C30.0095 21.4013 32.8975 18.5173 32.8975 14.1213C32.8975 9.72531 30.2453 6.84131 26.0901 6.84131C24.1746 6.84131 22.7012 7.51331 21.8171 8.60531V7.06531H17.7209V26.8893ZM25.2355 18.0413C23.0253 18.0413 21.5814 16.4733 21.5814 14.1213C21.5814 11.7413 23.0253 10.1733 25.2355 10.1733C27.3868 10.1733 28.8602 11.7413 28.8602 14.1213C28.8602 16.4733 27.3868 18.0413 25.2355 18.0413Z" fill="#B0B0B0"/>
<path d="M33.8886 21.1774H37.9848V13.4494C37.9848 11.6293 39.2519 10.3134 41.0496 10.3134C42.7588 10.3134 43.9375 11.5454 43.9375 13.2534V21.1774H48.0337V12.3854C48.0337 9.13735 45.853 6.84135 42.523 6.84135C40.4602 6.84135 38.8394 7.65335 37.9848 9.02535V0.93335H33.8886V21.1774Z" fill="#B0B0B0"/>
<path d="M59.4926 16.3893C59.1684 17.5933 58.0781 18.2093 56.4278 18.2093C54.365 18.2093 53.0389 16.9773 52.7442 14.9893H63.412C63.4414 14.6813 63.4709 14.2613 63.4709 13.7293C63.4709 10.5093 61.3786 6.84131 56.1331 6.84131C51.0939 6.84131 48.7953 10.5093 48.7953 14.0933C48.7953 17.6493 51.3886 21.4013 56.4278 21.4013C60.082 21.4013 62.911 19.4413 63.5004 16.3893H59.4926ZM56.1331 9.69731C58.1075 9.69731 59.2568 10.9573 59.3747 12.5253H52.8031C53.1567 10.5653 54.2766 9.69731 56.1331 9.69731Z" fill="#B0B0B0"/>
<path d="M74.2137 10.3133V7.06531H72.1003C70.3027 7.06531 69.1829 7.65331 68.3872 9.41731V7.06531H64.2615V21.1773H68.3872V14.3173C68.3872 11.9093 69.3007 10.3133 71.3341 10.3133H74.2137Z" fill="#B0B0B0"/>
<path d="M88.3588 7.06531H84.2332V14.7933C84.2332 16.5853 82.966 17.9293 81.1684 17.9293C79.4887 17.9293 78.3099 16.6973 78.3099 14.9893V7.06531H74.2137V15.8573C74.2137 19.0773 76.3944 21.4013 79.7244 21.4013C81.7578 21.4013 83.408 20.5613 84.2332 19.2173V21.1773H88.3588V7.06531Z" fill="#B0B0B0"/>
<path d="M90.1273 21.1774H94.2235V0.93335H90.1273V21.1774Z" fill="#B0B0B0"/>
<path d="M105.918 16.3893C105.593 17.5933 104.503 18.2093 102.853 18.2093C100.79 18.2093 99.4639 16.9773 99.1694 14.9893H109.837C109.866 14.6813 109.896 14.2613 109.896 13.7293C109.896 10.5093 107.804 6.84131 102.558 6.84131C97.5191 6.84131 95.2205 10.5093 95.2205 14.0933C95.2205 17.6493 97.8138 21.4013 102.853 21.4013C106.507 21.4013 109.336 19.4413 109.925 16.3893H105.918ZM102.558 9.69731C104.533 9.69731 105.682 10.9573 105.8 12.5253H99.2281C99.5817 10.5653 100.702 9.69731 102.558 9.69731Z" fill="#B0B0B0"/>
</svg>
