<svg width="22" height="44" viewBox="0 0 22 44" fill="none" xmlns="http://www.w3.org/2000/svg">
<g clip-path="url(#clip0_1_767)">
<path fill-rule="evenodd" clip-rule="evenodd" d="M-0.519989 44C11.6303 44 21.48 34.1503 21.48 22C21.48 9.84975 11.6303 0 -0.519989 0C-12.6703 0 -22.52 9.84975 -22.52 22C-22.52 34.1503 -12.6703 44 -0.519989 44ZM6.34321 10.2485C6.67731 9.06186 5.52571 8.36015 4.47401 9.10944L-10.2076 19.5685C-11.3482 20.3811 -11.1688 22 -9.93809 22H-6.07199V21.9701H1.46281L-4.67669 24.1363L-7.38319 33.7515C-7.71729 34.9382 -6.56579 35.6399 -5.51399 34.8906L9.16761 24.4315C10.3082 23.619 10.1287 22 8.89811 22H3.03531L6.34321 10.2485Z" fill="#B0B0B0"/>
</g>
<defs>
<clipPath id="clip0_1_767">
<rect width="44" height="44" fill="white" transform="translate(-22.52)"/>
</clipPath>
</defs>
</svg>
