<svg width="116" height="29" viewBox="0 0 116 29" fill="none" xmlns="http://www.w3.org/2000/svg">
<path d="M5.47539 17.2758H11.3709V20.5057H0.974789V3.32861H5.47539V17.2758Z" fill="#B0B0B0"/>
<path d="M15.5179 5.43297C14.7283 5.43297 14.0791 5.22091 13.5702 4.79678C13.079 4.35634 12.8333 3.81803 12.8333 3.18184C12.8333 2.52934 13.079 1.99103 13.5702 1.56691C14.0791 1.12647 14.7283 0.90625 15.5179 0.90625C16.2899 0.90625 16.9216 1.12647 17.4129 1.56691C17.9217 1.99103 18.1761 2.52934 18.1761 3.18184C18.1761 3.81803 17.9217 4.35634 17.4129 4.79678C16.9216 5.22091 16.2899 5.43297 15.5179 5.43297ZM17.755 6.85216V20.5057H13.2544V6.85216H17.755Z" fill="#B0B0B0"/>
<path d="M26.3331 6.65637C27.3683 6.65637 28.2719 6.85212 29.044 7.24362C29.8335 7.63512 30.4389 8.14897 30.86 8.78515V6.85212H35.3606V20.4812C35.3606 21.7373 35.0886 22.871 34.5447 23.8824C34.0183 24.9101 33.2024 25.7257 32.097 26.3292C31.0091 26.9328 29.6493 27.2346 28.0175 27.2346C25.8418 27.2346 24.0784 26.7534 22.7273 25.7909C21.3763 24.8448 20.6042 23.5561 20.4112 21.9249H24.8592C24.9996 22.4469 25.3329 22.8547 25.8593 23.1483C26.3857 23.4582 27.0349 23.6132 27.807 23.6132C28.7369 23.6132 29.4738 23.3604 30.0178 22.8547C30.5793 22.3653 30.86 21.5742 30.86 20.4812V18.5482C30.4213 19.1844 29.816 19.7064 29.044 20.1142C28.2719 20.5057 27.3683 20.7014 26.3331 20.7014C25.1224 20.7014 24.0257 20.416 23.0432 19.845C22.0606 19.2578 21.2798 18.434 20.7007 17.3737C20.1393 16.2971 19.8585 15.0573 19.8585 13.6544C19.8585 12.2516 20.1393 11.02 20.7007 9.95965C21.2798 8.89934 22.0606 8.08372 23.0432 7.51278C24.0257 6.94184 25.1224 6.65637 26.3331 6.65637ZM30.86 13.6789C30.86 12.6349 30.5442 11.8111 29.9125 11.2076C29.2984 10.604 28.5439 10.3022 27.649 10.3022C26.7542 10.3022 25.9909 10.604 25.3593 11.2076C24.7451 11.7948 24.4381 12.6104 24.4381 13.6544C24.4381 14.6984 24.7451 15.5304 25.3593 16.1502C25.9909 16.7538 26.7542 17.0556 27.649 17.0556C28.5439 17.0556 29.2984 16.7538 29.9125 16.1502C30.5442 15.5467 30.86 14.7229 30.86 13.6789Z" fill="#B0B0B0"/>
<path d="M47.3809 6.7053C49.0654 6.7053 50.4164 7.2273 51.4341 8.2713C52.4518 9.29899 52.9606 10.7182 52.9606 12.5289V20.5057H48.4863V13.0916C48.4863 12.1781 48.2319 11.4686 47.7231 10.9629C47.2142 10.4572 46.5299 10.2043 45.6702 10.2043C44.8104 10.2043 44.1261 10.4572 43.6173 10.9629C43.1084 11.4686 42.854 12.1781 42.854 13.0916V20.5057H38.3534V2.3988H42.854V8.68727C43.3102 8.08371 43.9331 7.60249 44.7227 7.24362C45.5123 6.88474 46.3983 6.7053 47.3809 6.7053Z" fill="#B0B0B0"/>
<path d="M64.0102 16.9578V20.5057H61.7204C60.0886 20.5057 58.8165 20.1387 57.9041 19.4046C56.9917 18.6543 56.5355 17.439 56.5355 15.7588V10.3267H54.7458V6.85216H56.5355V3.52441H61.0361V6.85216H63.9838V10.3267H61.0361V15.8077C61.0361 16.2155 61.1414 16.5092 61.3519 16.6886C61.5625 16.868 61.9134 16.9578 62.4047 16.9578H64.0102Z" fill="#B0B0B0"/>
<path d="M70.7545 8.78515C71.1756 8.14896 71.781 7.63512 72.5706 7.24362C73.3602 6.85212 74.2638 6.65637 75.2815 6.65637C76.4922 6.65637 77.5888 6.94183 78.5714 7.51277C79.554 8.08371 80.326 8.89933 80.8875 9.95965C81.4665 11.02 81.756 12.2516 81.756 13.6544C81.756 15.0573 81.4665 16.2971 80.8875 17.3737C80.326 18.434 79.554 19.2578 78.5714 19.845C77.5888 20.416 76.4922 20.7014 75.2815 20.7014C74.2462 20.7014 73.3426 20.5138 72.5706 20.1386C71.7985 19.7471 71.1932 19.2333 70.7545 18.5971V20.5057H66.2539V2.3988H70.7545V8.78515ZM77.1765 13.6544C77.1765 12.6104 76.8606 11.7948 76.229 11.2076C75.6148 10.604 74.8516 10.3022 73.9392 10.3022C73.0443 10.3022 72.2811 10.604 71.6494 11.2076C71.0353 11.8111 70.7282 12.6349 70.7282 13.6789C70.7282 14.7229 71.0353 15.5467 71.6494 16.1502C72.2811 16.7538 73.0443 17.0556 73.9392 17.0556C74.834 17.0556 75.5973 16.7538 76.229 16.1502C76.8606 15.5304 77.1765 14.6984 77.1765 13.6544Z" fill="#B0B0B0"/>
<path d="M90.5391 20.7014C89.1003 20.7014 87.8019 20.416 86.6438 19.845C85.5033 19.2741 84.5997 18.4585 83.9329 17.3982C83.2837 16.3378 82.9591 15.0981 82.9591 13.6789C82.9591 12.276 83.2925 11.0444 83.9592 9.98412C84.626 8.9075 85.5384 8.08372 86.6965 7.51278C87.8545 6.94184 89.1529 6.65637 90.5917 6.65637C92.0305 6.65637 93.3289 6.94184 94.487 7.51278C95.645 8.08372 96.5574 8.9075 97.2242 9.98412C97.8909 11.0444 98.2243 12.276 98.2243 13.6789C98.2243 15.0818 97.8822 16.3215 97.1979 17.3982C96.5311 18.4585 95.6099 19.2741 94.4343 19.845C93.2763 20.416 91.9779 20.7014 90.5391 20.7014ZM90.5391 17.0801C91.3988 17.0801 92.127 16.7864 92.7236 16.1992C93.3377 15.6119 93.6448 14.7718 93.6448 13.6789C93.6448 12.586 93.3465 11.7459 92.7499 11.1586C92.1709 10.5714 91.4515 10.2777 90.5917 10.2777C89.7144 10.2777 88.9862 10.5714 88.4072 11.1586C87.8282 11.7296 87.5387 12.5697 87.5387 13.6789C87.5387 14.7718 87.8194 15.6119 88.3809 16.1992C88.9599 16.7864 89.6793 17.0801 90.5391 17.0801Z" fill="#B0B0B0"/>
<path d="M109.034 20.5057L106.218 16.7131L103.849 20.5057H98.9802L103.823 13.5321L98.8486 6.85217H103.902L106.718 10.6204L109.087 6.85217H113.956L109.034 13.7279L114.087 20.5057H109.034Z" fill="#B0B0B0"/>
</svg>
