<svg width="144" height="20" viewBox="0 0 144 20" fill="none" xmlns="http://www.w3.org/2000/svg">
<path d="M0.986298 0.869507V18.2539H5.32208V11.0712H13.5794V8.10081H5.32208V4.08342H14.8497V0.869507H0.986298Z" fill="#B0B0B0"/>
<path d="M25.7244 10.6087H19.345C19.3634 10.3652 19.4186 10.0893 19.5107 9.78085C19.6212 9.47244 19.7961 9.18026 20.0354 8.90433C20.2932 8.62839 20.6246 8.40113 21.0296 8.22259C21.453 8.0278 21.9778 7.93041 22.6038 7.93041C23.5611 7.93041 24.2699 8.15766 24.7302 8.61215C25.2089 9.06665 25.5403 9.73215 25.7244 10.6087ZM19.345 12.8H29.646C29.7195 11.8261 29.6275 10.8928 29.3698 9.99998C29.112 9.10722 28.6886 8.31186 28.0994 7.61389C27.5287 6.91592 26.7922 6.36404 25.8901 5.95824C24.988 5.53621 23.9294 5.3252 22.7142 5.3252C21.6279 5.3252 20.6337 5.49563 19.7317 5.8365C18.8479 6.17737 18.0838 6.64809 17.4395 7.24867C16.795 7.83302 16.2979 8.531 15.9482 9.34259C15.5984 10.1542 15.4235 11.0307 15.4235 11.9722C15.4235 12.9461 15.5892 13.8388 15.9206 14.6504C16.2703 15.462 16.7583 16.16 17.3843 16.7443C18.0102 17.3287 18.7743 17.7832 19.6764 18.1078C20.5785 18.4162 21.5911 18.5704 22.7142 18.5704C24.3343 18.5704 25.7152 18.2458 26.8567 17.5965C27.9981 16.9472 28.8451 15.8678 29.3974 14.3582H25.9454C25.8164 14.7478 25.4666 15.1211 24.8959 15.4782C24.3252 15.8191 23.6439 15.9895 22.8523 15.9895C21.7477 15.9895 20.9007 15.738 20.3116 15.2348C19.7224 14.7315 19.4003 13.92 19.345 12.8Z" fill="#B0B0B0"/>
<path d="M30.9776 9.53737C31.0328 8.72578 31.2629 8.05215 31.668 7.5165C32.0729 6.98085 32.5885 6.5507 33.2145 6.22606C33.8404 5.90143 34.5401 5.67418 35.3133 5.54433C36.105 5.39824 36.8966 5.3252 37.6883 5.3252C38.4064 5.3252 39.1336 5.37389 39.87 5.47128C40.6064 5.55244 41.2785 5.72287 41.886 5.98259C42.4936 6.2423 42.9907 6.60752 43.3773 7.07824C43.764 7.53273 43.9573 8.14143 43.9573 8.90433V15.4539C43.9573 16.022 43.9941 16.5658 44.0677 17.0852C44.1413 17.6046 44.2702 17.9942 44.4544 18.2539H40.4776C40.4039 18.0591 40.3395 17.8643 40.2843 17.6695C40.2474 17.4585 40.2198 17.2475 40.2014 17.0365C39.5754 17.6046 38.839 18.0023 37.9921 18.2295C37.1452 18.4568 36.2799 18.5704 35.3962 18.5704C34.7149 18.5704 34.0798 18.4974 33.4906 18.3513C32.9015 18.2052 32.386 17.978 31.9441 17.6695C31.5023 17.3611 31.1524 16.9715 30.8947 16.5008C30.6553 16.0302 30.5357 15.4702 30.5357 14.8208C30.5357 14.1067 30.6738 13.5223 30.9499 13.0678C31.2445 12.5971 31.6127 12.2237 32.0546 11.9478C32.5148 11.6719 33.0303 11.4689 33.6011 11.3391C34.1902 11.193 34.7793 11.0794 35.3686 10.9982C35.9577 10.9171 36.5376 10.8522 37.1084 10.8035C37.6792 10.7548 38.1854 10.6817 38.6273 10.5843C39.0692 10.4869 39.4189 10.3489 39.6767 10.1704C39.9344 9.97563 40.0541 9.69972 40.0357 9.34259C40.0357 8.96926 39.9621 8.67708 39.8148 8.46606C39.6859 8.23882 39.5018 8.06839 39.2625 7.95476C39.0416 7.82491 38.7746 7.74374 38.4616 7.71128C38.167 7.66259 37.8448 7.63824 37.495 7.63824C36.7218 7.63824 36.1142 7.78433 35.6723 8.0765C35.2305 8.36867 34.9727 8.85563 34.8991 9.53737H30.9776ZM40.0357 12.0939C39.87 12.2237 39.6583 12.3293 39.4006 12.4104C39.1612 12.4754 38.8942 12.5322 38.5997 12.5808C38.3235 12.6295 38.0289 12.6702 37.716 12.7026C37.403 12.735 37.09 12.7756 36.777 12.8243C36.4824 12.873 36.1878 12.938 35.8933 13.0191C35.6171 13.1002 35.3686 13.2139 35.1476 13.36C34.945 13.4898 34.7794 13.6602 34.6505 13.8713C34.5216 14.0823 34.4572 14.3502 34.4572 14.6748C34.4572 14.9832 34.5216 15.2428 34.6505 15.4539C34.7794 15.6649 34.9543 15.8354 35.1753 15.9652C35.3962 16.0788 35.6539 16.16 35.9485 16.2087C36.243 16.2574 36.5468 16.2817 36.8599 16.2817C37.6331 16.2817 38.2314 16.1681 38.6549 15.9408C39.0783 15.7136 39.3914 15.4458 39.5939 15.1374C39.7964 14.8128 39.916 14.4881 39.9529 14.1635C40.0081 13.8388 40.0357 13.5791 40.0357 13.3843V12.0939Z" fill="#B0B0B0"/>
<path d="M51.1436 5.66612V1.89221H47.222V5.66612H44.847V7.97917H47.222V15.4053C47.222 16.0383 47.3417 16.5496 47.581 16.9392C47.8204 17.3287 48.1425 17.629 48.5476 17.84C48.971 18.0511 49.4498 18.189 49.9837 18.254C50.536 18.3351 51.1159 18.3757 51.7235 18.3757C52.1101 18.3757 52.5059 18.3676 52.911 18.3513C53.3161 18.3351 53.6843 18.3026 54.0157 18.254V15.5757C53.8315 15.6081 53.6382 15.6325 53.4357 15.6487C53.2332 15.665 53.0215 15.6731 52.8006 15.6731C52.1378 15.6731 51.6959 15.5757 51.475 15.3809C51.254 15.1861 51.1436 14.7966 51.1436 14.2122V7.97917H54.0157V5.66612H51.1436Z" fill="#B0B0B0"/>
<path d="M55.0531 0.869507V18.2539H58.9746V11.6556C58.9746 10.3732 59.2139 9.45618 59.6926 8.90429C60.1713 8.33618 60.9445 8.05212 62.0124 8.05212C62.9514 8.05212 63.6049 8.31183 63.9732 8.83125C64.3414 9.33444 64.5255 10.1054 64.5255 11.1443V18.2539H68.447V10.5112C68.447 9.73212 68.3642 9.02603 68.1985 8.39299C68.0511 7.74371 67.7843 7.19994 67.3976 6.76168C67.011 6.30719 66.477 5.9582 65.7959 5.71472C65.1331 5.45501 64.277 5.32516 63.2275 5.32516C62.4911 5.32516 61.7362 5.49559 60.963 5.83646C60.1897 6.1611 59.5546 6.68864 59.0575 7.41907H58.9746V0.869507H55.0531Z" fill="#B0B0B0"/>
<path d="M80.2053 10.6087H73.8259C73.8444 10.3652 73.8996 10.0893 73.9916 9.78085C74.1021 9.47244 74.277 9.18026 74.5164 8.90433C74.7741 8.62839 75.1056 8.40113 75.5105 8.22259C75.9341 8.0278 76.4588 7.93041 77.0847 7.93041C78.0421 7.93041 78.7509 8.15766 79.2111 8.61215C79.6899 9.06665 80.0212 9.73215 80.2053 10.6087ZM73.8259 12.8H84.1269C84.2006 11.8261 84.1085 10.8928 83.8507 9.99998C83.593 9.10722 83.1696 8.31186 82.5804 7.61389C82.0097 6.91592 81.2732 6.36404 80.371 5.95824C79.469 5.53621 78.4103 5.3252 77.1951 5.3252C76.1089 5.3252 75.1147 5.49563 74.2126 5.8365C73.3288 6.17737 72.5649 6.64809 71.9204 7.24867C71.2761 7.83302 70.779 8.531 70.4291 9.34259C70.0794 10.1542 69.9044 11.0307 69.9044 11.9722C69.9044 12.9461 70.0701 13.8388 70.4015 14.6504C70.7513 15.462 71.2393 16.16 71.8652 16.7443C72.4912 17.3287 73.2553 17.7832 74.1573 18.1078C75.0595 18.4162 76.0721 18.5704 77.1951 18.5704C78.8153 18.5704 80.1962 18.2458 81.3376 17.5965C82.4791 16.9472 83.326 15.8678 83.8783 14.3582H80.4263C80.2975 14.7478 79.9476 15.1211 79.3768 15.4782C78.8062 15.8191 78.1249 15.9895 77.3332 15.9895C76.2286 15.9895 75.3816 15.738 74.7925 15.2348C74.2034 14.7315 73.8812 13.92 73.8259 12.8Z" fill="#B0B0B0"/>
<path d="M85.6242 5.66606V18.2539H89.5457V12.5808C89.5457 12.0128 89.6102 11.4852 89.739 10.9982C89.8679 10.5113 90.0797 10.0893 90.3742 9.73215C90.6873 9.35882 91.0922 9.06665 91.5893 8.85563C92.0864 8.64461 92.694 8.53911 93.412 8.53911C93.6514 8.53911 93.8999 8.55534 94.1577 8.5878C94.4155 8.60404 94.6364 8.62839 94.8204 8.66085V5.44693C94.5075 5.36578 94.2222 5.3252 93.9643 5.3252C93.4672 5.3252 92.9886 5.39013 92.5283 5.51998C92.0681 5.64983 91.6354 5.8365 91.2303 6.07998C90.8253 6.30722 90.4663 6.59128 90.1533 6.93215C89.8403 7.25679 89.5918 7.61389 89.4076 8.00346H89.3524V5.66606H85.6242Z" fill="#B0B0B0"/>
<path d="M100.279 15.0399V4.08342H103.372C104.44 4.08342 105.333 4.22139 106.051 4.49733C106.788 4.75705 107.377 5.13849 107.819 5.64168C108.26 6.14487 108.574 6.75357 108.757 7.46777C108.961 8.16574 109.061 8.95298 109.061 9.82951C109.061 10.7872 108.923 11.5988 108.647 12.2643C108.371 12.9298 108.003 13.4736 107.542 13.8956C107.083 14.3014 106.558 14.5936 105.968 14.7721C105.379 14.9506 104.772 15.0399 104.146 15.0399H100.279ZM95.9438 0.869507V18.2539H104.449C105.959 18.2539 107.266 18.0347 108.371 17.5965C109.494 17.1419 110.424 16.5252 111.16 15.746C111.916 14.9669 112.477 14.0417 112.845 12.9704C113.214 11.8991 113.397 10.7304 113.397 9.46429C113.397 8.01965 113.167 6.76168 112.707 5.69038C112.265 4.61907 111.639 3.72632 110.829 3.01212C110.038 2.29792 109.089 1.76226 107.984 1.40516C106.898 1.04806 105.72 0.869507 104.449 0.869507H95.9438Z" fill="#B0B0B0"/>
<path d="M124.781 10.6087H118.402C118.42 10.3652 118.476 10.0893 118.567 9.78085C118.678 9.47244 118.852 9.18026 119.092 8.90433C119.349 8.62839 119.681 8.40113 120.086 8.22259C120.509 8.0278 121.034 7.93041 121.66 7.93041C122.618 7.93041 123.326 8.15766 123.787 8.61215C124.265 9.06665 124.597 9.73215 124.781 10.6087ZM118.402 12.8H128.702C128.776 11.8261 128.684 10.8928 128.426 9.99998C128.169 9.10722 127.745 8.31186 127.156 7.61389C126.585 6.91592 125.849 6.36404 124.947 5.95824C124.044 5.53621 122.986 5.3252 121.771 5.3252C120.685 5.3252 119.691 5.49563 118.788 5.8365C117.904 6.17737 117.14 6.64809 116.496 7.24867C115.852 7.83302 115.355 8.531 115.005 9.34259C114.655 10.1542 114.48 11.0307 114.48 11.9722C114.48 12.9461 114.646 13.8388 114.977 14.6504C115.327 15.462 115.814 16.16 116.441 16.7443C117.067 17.3287 117.83 17.7832 118.733 18.1078C119.635 18.4162 120.647 18.5704 121.771 18.5704C123.391 18.5704 124.772 18.2458 125.913 17.5965C127.054 16.9472 127.902 15.8678 128.454 14.3582H125.002C124.873 14.7478 124.524 15.1211 123.952 15.4782C123.381 15.8191 122.701 15.9895 121.909 15.9895C120.804 15.9895 119.957 15.738 119.368 15.2348C118.779 14.7315 118.457 13.92 118.402 12.8Z" fill="#B0B0B0"/>
<path d="M138.098 18.254L142.931 5.66614H139.037L136.027 14.2609H135.972L132.961 5.66614H128.846L133.735 18.254H138.098Z" fill="#B0B0B0"/>
</svg>
